# xmcd
#
# Track frame offsets:
#	150
#	16882
#	28722
#	51637
#	70720
#	88403
#	139048
#	180876
#	211692
#	257737
#
# Disc length: 4056 seconds
#
# Revision: 1
# Processed by: cddbd v1.5.1PL2 Copyright (c) Steve Scherf et al.
# Submitted via: audiograbber 1.83.01
#
DISCID=850fd60a
DTITLE=Allman Brothers Band - Wanee Festival, Live Oak, FL 4-14-06 - Disc One
DYEAR=2006
DGENRE=Blues
TTITLE0=Warmup
TTITLE1=Don't Want You No More
TTITLE2=Cross To Bear
TTITLE3=Trouble No More
TTITLE4=Don't Keep Me Wondering
TTITLE5=Who's Been Talking
TTITLE6=Anyday
TTITLE7=Melissa
TTITLE8=Born Under a Bad Sign
TTITLE9=Rockin' Horse
EXTD=
EXTT0=
EXTT1=
EXTT2=
EXTT3=
EXTT4=
EXTT5=
EXTT6=
EXTT7=
EXTT8=
EXTT9=
PLAYORDER=
